<mxfile host="app.diagrams.net" modified="2021-09-29T05:38:42.953Z" agent="5.0 (X11; Linux x86_64) AppleWebKit/537.36 (KHTML, like Gecko) Chrome/93.0.4577.63 Safari/537.36" etag="oGzro9RHJ2xCr62HK8lB" version="15.0.5" type="github">
  <diagram id="NV6qcvC3CDAKwV2F5nRF" name="Page-1">
    <mxGraphModel dx="2400" dy="832" grid="1" gridSize="10" guides="1" tooltips="1" connect="1" arrows="1" fold="1" page="1" pageScale="1" pageWidth="850" pageHeight="1100" math="0" shadow="0">
      <root>
        <mxCell id="0" />
        <mxCell id="1" parent="0" />
        <mxCell id="ze1SYcHkjlmeA1l9NNVH-2" value="Deploy" style="whiteSpace=wrap;html=1;aspect=fixed;" vertex="1" parent="1">
          <mxGeometry x="-190" y="270" width="80" height="80" as="geometry" />
        </mxCell>
        <mxCell id="ze1SYcHkjlmeA1l9NNVH-3" value="Upgrade" style="whiteSpace=wrap;html=1;aspect=fixed;" vertex="1" parent="1">
          <mxGeometry x="-190" y="360" width="80" height="80" as="geometry" />
        </mxCell>
        <mxCell id="ze1SYcHkjlmeA1l9NNVH-4" value="Support" style="whiteSpace=wrap;html=1;aspect=fixed;" vertex="1" parent="1">
          <mxGeometry x="-190" y="450" width="80" height="80" as="geometry" />
        </mxCell>
        <mxCell id="ze1SYcHkjlmeA1l9NNVH-10" value="Task (Slack)" style="whiteSpace=wrap;html=1;aspect=fixed;" vertex="1" parent="1">
          <mxGeometry x="-450" y="360" width="80" height="80" as="geometry" />
        </mxCell>
        <mxCell id="ze1SYcHkjlmeA1l9NNVH-11" value="" style="endArrow=classic;html=1;exitX=1;exitY=0.5;exitDx=0;exitDy=0;entryX=0;entryY=0.5;entryDx=0;entryDy=0;" edge="1" parent="1" source="ze1SYcHkjlmeA1l9NNVH-10" target="ze1SYcHkjlmeA1l9NNVH-2">
          <mxGeometry width="50" height="50" relative="1" as="geometry">
            <mxPoint x="70" y="430" as="sourcePoint" />
            <mxPoint x="120" y="380" as="targetPoint" />
          </mxGeometry>
        </mxCell>
        <mxCell id="ze1SYcHkjlmeA1l9NNVH-12" value="" style="endArrow=classic;html=1;exitX=1;exitY=0.5;exitDx=0;exitDy=0;entryX=0;entryY=0.5;entryDx=0;entryDy=0;" edge="1" parent="1" source="ze1SYcHkjlmeA1l9NNVH-10" target="ze1SYcHkjlmeA1l9NNVH-3">
          <mxGeometry width="50" height="50" relative="1" as="geometry">
            <mxPoint x="70" y="430" as="sourcePoint" />
            <mxPoint x="120" y="380" as="targetPoint" />
          </mxGeometry>
        </mxCell>
        <mxCell id="ze1SYcHkjlmeA1l9NNVH-13" value="" style="endArrow=classic;html=1;exitX=1;exitY=0.5;exitDx=0;exitDy=0;entryX=0;entryY=0.5;entryDx=0;entryDy=0;" edge="1" parent="1" source="ze1SYcHkjlmeA1l9NNVH-10" target="ze1SYcHkjlmeA1l9NNVH-4">
          <mxGeometry width="50" height="50" relative="1" as="geometry">
            <mxPoint x="70" y="430" as="sourcePoint" />
            <mxPoint x="120" y="380" as="targetPoint" />
          </mxGeometry>
        </mxCell>
        <mxCell id="ze1SYcHkjlmeA1l9NNVH-14" value="Solution &lt;br&gt;Status&lt;br&gt;(Slack)" style="whiteSpace=wrap;html=1;aspect=fixed;" vertex="1" parent="1">
          <mxGeometry x="-450" y="440" width="80" height="80" as="geometry" />
        </mxCell>
        <mxCell id="ze1SYcHkjlmeA1l9NNVH-15" value="" style="endArrow=classic;html=1;exitX=1;exitY=0.5;exitDx=0;exitDy=0;entryX=0;entryY=0.5;entryDx=0;entryDy=0;" edge="1" parent="1" source="ze1SYcHkjlmeA1l9NNVH-2" target="ze1SYcHkjlmeA1l9NNVH-18">
          <mxGeometry width="50" height="50" relative="1" as="geometry">
            <mxPoint x="70" y="430" as="sourcePoint" />
            <mxPoint x="120" y="380" as="targetPoint" />
          </mxGeometry>
        </mxCell>
        <mxCell id="ze1SYcHkjlmeA1l9NNVH-16" value="" style="endArrow=classic;html=1;exitX=1;exitY=0.5;exitDx=0;exitDy=0;entryX=0;entryY=0.5;entryDx=0;entryDy=0;" edge="1" parent="1" source="ze1SYcHkjlmeA1l9NNVH-3" target="ze1SYcHkjlmeA1l9NNVH-18">
          <mxGeometry width="50" height="50" relative="1" as="geometry">
            <mxPoint x="70" y="430" as="sourcePoint" />
            <mxPoint x="20" y="405.6521739130435" as="targetPoint" />
          </mxGeometry>
        </mxCell>
        <mxCell id="ze1SYcHkjlmeA1l9NNVH-18" value="Range Manger" style="whiteSpace=wrap;html=1;aspect=fixed;" vertex="1" parent="1">
          <mxGeometry y="360" width="80" height="80" as="geometry" />
        </mxCell>
        <mxCell id="ze1SYcHkjlmeA1l9NNVH-19" value="" style="endArrow=classic;html=1;exitX=1;exitY=0.5;exitDx=0;exitDy=0;entryX=0;entryY=0.5;entryDx=0;entryDy=0;" edge="1" parent="1" source="ze1SYcHkjlmeA1l9NNVH-4" target="ze1SYcHkjlmeA1l9NNVH-18">
          <mxGeometry width="50" height="50" relative="1" as="geometry">
            <mxPoint x="70" y="430" as="sourcePoint" />
            <mxPoint x="120" y="380" as="targetPoint" />
          </mxGeometry>
        </mxCell>
        <mxCell id="ze1SYcHkjlmeA1l9NNVH-24" value="Technical Range" style="whiteSpace=wrap;html=1;aspect=fixed;" vertex="1" parent="1">
          <mxGeometry x="80" y="360" width="80" height="80" as="geometry" />
        </mxCell>
        <mxCell id="ze1SYcHkjlmeA1l9NNVH-25" value="Time&lt;br&gt;Range" style="whiteSpace=wrap;html=1;aspect=fixed;" vertex="1" parent="1">
          <mxGeometry x="160" y="360" width="80" height="80" as="geometry" />
        </mxCell>
        <mxCell id="ze1SYcHkjlmeA1l9NNVH-26" value="" style="endArrow=classic;html=1;exitX=1;exitY=0.5;exitDx=0;exitDy=0;entryX=0;entryY=0.5;entryDx=0;entryDy=0;" edge="1" parent="1" source="ze1SYcHkjlmeA1l9NNVH-25" target="ze1SYcHkjlmeA1l9NNVH-27">
          <mxGeometry width="50" height="50" relative="1" as="geometry">
            <mxPoint x="-60" y="410" as="sourcePoint" />
            <mxPoint x="440" y="400" as="targetPoint" />
          </mxGeometry>
        </mxCell>
        <mxCell id="ze1SYcHkjlmeA1l9NNVH-27" value="Operator" style="whiteSpace=wrap;html=1;aspect=fixed;" vertex="1" parent="1">
          <mxGeometry x="300" y="360" width="80" height="80" as="geometry" />
        </mxCell>
        <mxCell id="ze1SYcHkjlmeA1l9NNVH-28" value="" style="endArrow=classic;html=1;exitX=0.5;exitY=1;exitDx=0;exitDy=0;entryX=0.5;entryY=1;entryDx=0;entryDy=0;" edge="1" parent="1" source="ze1SYcHkjlmeA1l9NNVH-27" target="ze1SYcHkjlmeA1l9NNVH-14">
          <mxGeometry width="50" height="50" relative="1" as="geometry">
            <mxPoint x="70" y="400" as="sourcePoint" />
            <mxPoint x="-460" y="650.7999877929688" as="targetPoint" />
            <Array as="points">
              <mxPoint x="320" y="590" />
              <mxPoint x="-240" y="590" />
            </Array>
          </mxGeometry>
        </mxCell>
        <mxCell id="ze1SYcHkjlmeA1l9NNVH-29" value="Obstacle" style="triangle;whiteSpace=wrap;html=1;rotation=-90;" vertex="1" parent="1">
          <mxGeometry x="310" y="210" width="60" height="80" as="geometry" />
        </mxCell>
        <mxCell id="ze1SYcHkjlmeA1l9NNVH-30" value="" style="endArrow=classic;html=1;exitX=0.5;exitY=0;exitDx=0;exitDy=0;entryX=0;entryY=0.5;entryDx=0;entryDy=0;" edge="1" parent="1" source="ze1SYcHkjlmeA1l9NNVH-27" target="ze1SYcHkjlmeA1l9NNVH-29">
          <mxGeometry width="50" height="50" relative="1" as="geometry">
            <mxPoint x="70" y="420" as="sourcePoint" />
            <mxPoint x="120" y="370" as="targetPoint" />
          </mxGeometry>
        </mxCell>
        <mxCell id="ze1SYcHkjlmeA1l9NNVH-31" value="Team" style="whiteSpace=wrap;html=1;aspect=fixed;" vertex="1" parent="1">
          <mxGeometry x="300" y="70" width="80" height="80" as="geometry" />
        </mxCell>
        <mxCell id="ze1SYcHkjlmeA1l9NNVH-32" value="" style="endArrow=classic;html=1;exitX=1;exitY=0.5;exitDx=0;exitDy=0;entryX=0.5;entryY=1;entryDx=0;entryDy=0;" edge="1" parent="1" source="ze1SYcHkjlmeA1l9NNVH-29" target="ze1SYcHkjlmeA1l9NNVH-31">
          <mxGeometry width="50" height="50" relative="1" as="geometry">
            <mxPoint x="70" y="420" as="sourcePoint" />
            <mxPoint x="120" y="370" as="targetPoint" />
          </mxGeometry>
        </mxCell>
        <mxCell id="ze1SYcHkjlmeA1l9NNVH-33" value="" style="endArrow=classic;html=1;exitX=0;exitY=0.5;exitDx=0;exitDy=0;entryX=0.5;entryY=0;entryDx=0;entryDy=0;" edge="1" parent="1" source="ze1SYcHkjlmeA1l9NNVH-31" target="ze1SYcHkjlmeA1l9NNVH-10">
          <mxGeometry width="50" height="50" relative="1" as="geometry">
            <mxPoint x="70" y="420" as="sourcePoint" />
            <mxPoint x="120" y="370" as="targetPoint" />
            <Array as="points">
              <mxPoint x="-230" y="110" />
            </Array>
          </mxGeometry>
        </mxCell>
        <mxCell id="ze1SYcHkjlmeA1l9NNVH-34" value="Task Manager" style="swimlane;startSize=23;" vertex="1" parent="1">
          <mxGeometry x="-810" y="330" width="200" height="200" as="geometry" />
        </mxCell>
        <mxCell id="ze1SYcHkjlmeA1l9NNVH-36" value="Task Record" style="rounded=0;whiteSpace=wrap;html=1;" vertex="1" parent="ze1SYcHkjlmeA1l9NNVH-34">
          <mxGeometry x="40" y="40" width="120" height="60" as="geometry" />
        </mxCell>
        <mxCell id="ze1SYcHkjlmeA1l9NNVH-35" value="" style="endArrow=classic;html=1;exitX=0;exitY=0.5;exitDx=0;exitDy=0;entryX=1;entryY=0.5;entryDx=0;entryDy=0;" edge="1" parent="1" source="ze1SYcHkjlmeA1l9NNVH-10" target="ze1SYcHkjlmeA1l9NNVH-36">
          <mxGeometry width="50" height="50" relative="1" as="geometry">
            <mxPoint x="-490" y="420" as="sourcePoint" />
            <mxPoint x="-660" y="320" as="targetPoint" />
          </mxGeometry>
        </mxCell>
      </root>
    </mxGraphModel>
  </diagram>
</mxfile>
